<svg width="24" height="25" viewBox="0 0 24 25" fill="none" xmlns="http://www.w3.org/2000/svg">
<path fill-rule="evenodd" clip-rule="evenodd" d="M16.9397 2.29931C17.221 2.0211 17.6025 1.86481 18.0002 1.86481C18.398 1.86481 18.7794 2.0211 19.0607 2.29931L22.0607 5.26734C22.3419 5.54564 22.4999 5.92304 22.4999 6.31654C22.4999 6.71005 22.3419 7.08745 22.0607 7.36575L8.56074 20.7219C8.39652 20.8849 8.19625 21.0078 7.97574 21.081L3.47574 22.5651C3.21136 22.6526 2.92754 22.6656 2.65614 22.6024C2.38474 22.5393 2.13649 22.4026 1.93927 22.2076C1.74205 22.0126 1.60365 21.7671 1.53961 21.4987C1.47558 21.2302 1.48843 20.9494 1.57674 20.6878L3.07674 16.2357C3.15054 16.017 3.27483 15.8184 3.43974 15.6555L16.9397 2.29931ZM18.0002 3.34851L21.0002 6.31654L7.50024 19.6727L3.00024 21.1567L4.50024 16.7047L18.0002 3.34851Z" fill="black"/>
<path fill-rule="evenodd" clip-rule="evenodd" d="M18.219 9.80996L14.469 6.09991L15.531 5.04922L19.281 8.75927L18.2205 9.80996H18.219ZM4.5 15.2207V15.9627C4.5 16.1595 4.57902 16.3482 4.71967 16.4874C4.86032 16.6265 5.05109 16.7047 5.25 16.7047H6V17.4467C6 17.6435 6.07902 17.8322 6.21967 17.9714C6.36032 18.1105 6.55109 18.1887 6.75 18.1887H7.5V18.9307C7.5 19.1275 7.57902 19.3163 7.71967 19.4554C7.86032 19.5946 8.05109 19.6727 8.25 19.6727H9V17.4467C9 17.2499 8.92098 17.0612 8.78033 16.922C8.63968 16.7829 8.44891 16.7047 8.25 16.7047H7.5V15.9627C7.5 15.7659 7.42098 15.5772 7.28033 15.438C7.13968 15.2989 6.94891 15.2207 6.75 15.2207H4.5Z" fill="black"/>
</svg>
