<svg width="25" height="24" viewBox="0 0 25 24" fill="none" xmlns="http://www.w3.org/2000/svg">
<path fill-rule="evenodd" clip-rule="evenodd" d="M19.7671 0.237808C20.5741 0.237808 21.348 0.553879 21.9186 1.11649C22.4892 1.6791 22.8098 2.44216 22.8098 3.23781V13.8578C22.81 14.2906 22.7152 14.7184 22.5319 15.1117C22.3486 15.505 22.0811 15.8545 21.7479 16.1363L13.1508 23.4008C12.875 23.634 12.5237 23.7622 12.1604 23.7622C11.7971 23.7622 11.4458 23.634 11.17 23.4008L2.57589 16.1378C2.24191 15.8561 1.97377 15.5065 1.78994 15.1129C1.6061 14.7193 1.51092 14.2911 1.51095 13.8578V3.23781C1.51095 2.44216 1.83152 1.6791 2.40213 1.11649C2.97275 0.553879 3.74667 0.237808 4.55364 0.237808L19.7671 0.237808ZM15.4252 15.0188C15.4959 15.0885 15.5799 15.1439 15.6723 15.1816C15.7647 15.2193 15.8637 15.2388 15.9637 15.2388C16.0638 15.2388 16.1628 15.2193 16.2552 15.1816C16.3476 15.1439 16.4316 15.0885 16.5023 15.0188C16.573 14.9491 16.6291 14.8663 16.6674 14.7752C16.7057 14.6841 16.7254 14.5864 16.7254 14.4878C16.7254 14.3892 16.7057 14.2915 16.6674 14.2004C16.6291 14.1093 16.573 14.0265 16.5023 13.9568L13.236 10.7378L16.5023 7.51881C16.573 7.44908 16.6291 7.36629 16.6674 7.27518C16.7057 7.18407 16.7254 7.08642 16.7254 6.98781C16.7254 6.88919 16.7057 6.79154 16.6674 6.70043C16.6291 6.60932 16.573 6.52654 16.5023 6.45681C16.4316 6.38708 16.3476 6.33176 16.2552 6.29402C16.1628 6.25628 16.0638 6.23686 15.9637 6.23686C15.8637 6.23686 15.7647 6.25628 15.6723 6.29402C15.5799 6.33176 15.4959 6.38708 15.4252 6.45681L12.1604 9.67731L8.89557 6.45681C8.75274 6.31598 8.55901 6.23686 8.35701 6.23686C8.15501 6.23686 7.96129 6.31598 7.81845 6.45681C7.67562 6.59764 7.59538 6.78864 7.59538 6.98781C7.59538 7.18697 7.67562 7.37798 7.81845 7.51881L11.0848 10.7378L7.81845 13.9568C7.67562 14.0976 7.59538 14.2886 7.59538 14.4878C7.59538 14.687 7.67562 14.878 7.81845 15.0188C7.96129 15.1596 8.15501 15.2388 8.35701 15.2388C8.55901 15.2388 8.75274 15.1596 8.89557 15.0188L12.1604 11.7983L15.4252 15.0188Z" fill="#FCFCFC"/>
</svg>
