<svg width="21" height="20" viewBox="0 0 21 20" fill="none" xmlns="http://www.w3.org/2000/svg">
<g clip-path="url(#clip0_24:358)">
<path fill-rule="evenodd" clip-rule="evenodd" d="M10.3718 3.43392L9.47551 2.51267C7.37176 0.350166 3.51426 1.09642 2.12176 3.81517C1.46801 5.09392 1.32051 6.94017 2.51426 9.29642C3.66426 11.5652 6.05676 14.2827 10.3718 17.2427C14.6868 14.2827 17.078 11.5652 18.2293 9.29642C19.423 6.93892 19.2768 5.09392 18.6218 3.81517C17.2293 1.09642 13.3718 0.348916 11.268 2.51142L10.3718 3.43392ZM10.3718 18.7489C-8.7945 6.08392 4.47051 -3.80108 10.1518 1.42767C10.2268 1.49642 10.3005 1.56767 10.3718 1.64142C10.4423 1.56773 10.5157 1.49685 10.5918 1.42892C16.2718 -3.80358 29.538 6.08267 10.3718 18.7489Z" fill="black"/>
</g>
<defs>
<clipPath id="clip0_24:358">
<rect width="20" height="20" fill="white" transform="translate(0.369263)"/>
</clipPath>
</defs>
</svg>
