<svg width="24" height="24" viewBox="0 0 24 24" fill="none" xmlns="http://www.w3.org/2000/svg">
<g clip-path="url(#clip0_25:52)">
<path fill-rule="evenodd" clip-rule="evenodd" d="M13.8397 2.09118C13.4904 0.636273 11.5111 0.636273 11.1618 2.09118L11.0583 2.52015C10.9988 2.76957 10.8763 2.99781 10.7037 3.18118C10.5311 3.36456 10.3146 3.49638 10.0767 3.56296C9.83879 3.62954 9.58813 3.62845 9.35076 3.55981C9.11338 3.49117 8.89794 3.35748 8.7268 3.17261L8.43357 2.85463C7.43457 1.7777 5.7183 2.80964 6.11359 4.25255L6.22858 4.67702C6.29615 4.92382 6.29927 5.18499 6.23761 5.43347C6.17596 5.68195 6.05177 5.90872 5.87791 6.0903C5.70404 6.27187 5.48683 6.40165 5.24875 6.4662C5.01067 6.53074 4.76039 6.52771 4.52381 6.45741L4.11702 6.33592C2.73567 5.92344 1.7453 7.71433 2.77736 8.75676L3.08209 9.06275C3.25925 9.24133 3.38737 9.46614 3.45315 9.71383C3.51893 9.96153 3.51997 10.2231 3.45617 10.4713C3.39236 10.7196 3.26603 10.9455 3.0903 11.1256C2.91457 11.3057 2.69584 11.4335 2.45682 11.4956L2.04572 11.6036C0.651428 11.9666 0.651428 14.0334 2.04572 14.3979L2.45682 14.5044C2.69584 14.5665 2.91457 14.6943 3.0903 14.8744C3.26603 15.0545 3.39236 15.2804 3.45617 15.5287C3.51997 15.7769 3.51893 16.0385 3.45315 16.2862C3.38737 16.5339 3.25925 16.7587 3.08209 16.9373L2.77736 17.2447C1.7453 18.2872 2.73424 20.0766 4.11702 19.6641L4.52381 19.5441C4.76048 19.4734 5.01095 19.4702 5.24925 19.5345C5.48755 19.5989 5.705 19.7287 5.87906 19.9103C6.05312 20.0919 6.17745 20.3188 6.23916 20.5675C6.30087 20.8162 6.29772 21.0775 6.23002 21.3245L6.11359 21.749C5.7183 23.1889 7.43457 24.2238 8.43357 23.1454L8.7268 22.8289C8.89784 22.644 9.11318 22.5103 9.35046 22.4416C9.58775 22.3728 9.83834 22.3716 10.0762 22.438C10.3141 22.5044 10.5306 22.6361 10.7033 22.8193C10.876 23.0025 10.9986 23.2306 11.0583 23.4798L11.1618 23.9088C11.5096 25.3637 13.4904 25.3637 13.8397 23.9088L13.9417 23.4798C14.0014 23.2306 14.124 23.0025 14.2967 22.8193C14.4694 22.6361 14.6859 22.5044 14.9238 22.438C15.1617 22.3716 15.4123 22.3728 15.6495 22.4416C15.8868 22.5103 16.1022 22.644 16.2732 22.8289L16.5679 23.1469C17.5669 24.2238 19.2817 23.1904 18.8864 21.749L18.7714 21.3245C18.7034 21.0774 18.7 20.8159 18.7615 20.567C18.8231 20.3181 18.9474 20.0909 19.1215 19.9091C19.2956 19.7273 19.5132 19.5974 19.7517 19.5329C19.9902 19.4685 20.2408 19.4718 20.4776 19.5426L20.8844 19.6641C22.2643 20.0766 23.2561 18.2872 22.2226 17.2447L21.9193 16.9373C21.7426 16.7587 21.6147 16.5341 21.5491 16.2867C21.4834 16.0393 21.4824 15.7781 21.546 15.5301C21.6096 15.2822 21.7356 15.0564 21.911 14.8764C22.0863 14.6963 22.3046 14.5684 22.5432 14.5059L22.9543 14.3994C24.3486 14.0349 24.3486 11.9696 22.9543 11.6051L22.5432 11.4971C22.3043 11.4348 22.0857 11.3069 21.9101 11.1267C21.7346 10.9465 21.6084 10.7206 21.5448 10.4723C21.4811 10.2241 21.4823 9.96263 21.5482 9.71503C21.614 9.46742 21.7422 9.24273 21.9193 9.06425L22.2241 8.75827C23.2561 7.71583 22.2658 5.92494 20.8844 6.33742L20.4776 6.45741C20.241 6.52826 19.9906 6.53178 19.7522 6.46759C19.5138 6.40341 19.2963 6.27386 19.1221 6.09239C18.9479 5.91091 18.8234 5.68411 18.7614 5.4355C18.6995 5.1869 18.7025 4.92554 18.77 4.67852L18.8864 4.25405C19.2817 2.81264 17.5669 1.7792 16.5679 2.85613L16.2732 3.17411C16.1019 3.35858 15.8865 3.49188 15.6492 3.56019C15.4119 3.62851 15.1614 3.62936 14.9238 3.56264C14.6861 3.49593 14.4698 3.36409 14.2974 3.18078C14.1249 2.99748 14.0027 2.76939 13.9432 2.52015L13.8411 2.09118H13.8397ZM12.5 20.495C13.4553 20.515 14.4049 20.3359 15.2931 19.9682C16.1813 19.6005 16.9902 19.0516 17.6726 18.3536C18.355 17.6556 18.8971 16.8227 19.2672 15.9034C19.6373 14.9841 19.8279 13.9971 19.8279 13C19.8279 12.0029 19.6373 11.0159 19.2672 10.0966C18.8971 9.17734 18.355 8.34435 17.6726 7.6464C16.9902 6.94844 16.1813 6.39955 15.2931 6.03185C14.4049 5.66415 13.4553 5.48502 12.5 5.50497C10.6124 5.53283 8.81121 6.33482 7.48584 7.73752C6.16046 9.14023 5.41744 11.0309 5.41744 13.0008C5.41744 14.9706 6.16046 16.8613 7.48584 18.264C8.81121 19.6667 10.6124 20.4687 12.5 20.4965V20.495Z" fill="black"/>
<path fill-rule="evenodd" clip-rule="evenodd" d="M11.2962 13L7.00155 7.8376L8.24009 7L12.6493 12.302H20V13.698H12.6493L8.23854 19L7 18.1624L11.2962 13Z" fill="#868686"/>
</g>
<defs>
<clipPath id="clip0_25:52">
<rect width="24" height="24" fill="white"/>
</clipPath>
</defs>
</svg>
