<svg width="20" height="20" viewBox="0 0 20 20" fill="none" xmlns="http://www.w3.org/2000/svg">
<g clip-path="url(#clip0)">
<path fill-rule="evenodd" clip-rule="evenodd" d="M9.95114 3.43392L9.09258 2.51267C7.07729 0.350166 3.382 1.09642 2.04805 3.81517C1.42179 5.09392 1.28049 6.94017 2.42405 9.29642C3.52569 11.5652 5.81759 14.2827 9.95114 17.2427C14.0847 14.2827 16.3754 11.5652 17.4782 9.29642C18.6218 6.93892 18.4817 5.09392 17.8542 3.81517C16.5203 1.09642 12.825 0.348916 10.8097 2.51142L9.95114 3.43392ZM9.95114 18.7489C-8.40917 6.08392 4.29804 -3.80108 9.74039 1.42767C9.81224 1.49642 9.88289 1.56767 9.95114 1.64142C10.0187 1.56773 10.089 1.49685 10.1619 1.42892C15.603 -3.80358 28.3115 6.08267 9.95114 18.7489Z" fill="black"/>
</g>
<defs>
<clipPath id="clip0">
<rect width="19.159" height="20" fill="white" transform="translate(0.369263)"/>
</clipPath>
</defs>
</svg>
