<svg width="40" height="40" viewBox="0 0 40 40" fill="none" xmlns="http://www.w3.org/2000/svg">
<path fill-rule="evenodd" clip-rule="evenodd" d="M19.98 0C8.93994 0 0 8.96 0 20C0 31.04 8.93994 40 19.98 40C31.04 40 40 31.04 40 20C40 8.96 31.04 0 19.98 0ZM20 36C11.16 36 4 28.84 4 20C4 11.16 11.16 4 20 4C28.84 4 36 11.16 36 20C36 28.84 28.84 36 20 36ZM30 15C30 16.66 28.66 18 27 18C25.34 18 24 16.66 24 15C24 13.34 25.34 12 27 12C28.66 12 30 13.34 30 15ZM13 18C14.66 18 16 16.66 16 15C16 13.34 14.66 12 13 12C11.34 12 10 13.34 10 15C10 16.66 11.34 18 13 18ZM30.22 24C28.62 28.08 24.66 31 20 31C15.3401 31 11.38 28.08 9.78002 24H30.22Z" fill="black" fill-opacity="0.54"/>
</svg>
