<svg width="28" height="30" viewBox="0 0 28 30" fill="none" xmlns="http://www.w3.org/2000/svg">
<path fill-rule="evenodd" clip-rule="evenodd" d="M14.2556 21.2887C14.1741 21.2017 14.1095 21.0982 14.0654 20.9843C14.0212 20.8704 13.9985 20.7483 13.9985 20.625C13.9985 20.5017 14.0212 20.3796 14.0654 20.2657C14.1095 20.1518 14.1741 20.0483 14.2556 19.9612L18.8878 15L14.2556 10.0387C14.0913 9.86271 13.999 9.62395 13.999 9.37499C13.999 9.12604 14.0913 8.88728 14.2556 8.71124C14.4199 8.53521 14.6427 8.43631 14.8751 8.43631C15.1075 8.43631 15.3303 8.53521 15.4946 8.71124L20.7446 14.3362C20.8261 14.4233 20.8907 14.5268 20.9348 14.6407C20.979 14.7546 21.0017 14.8767 21.0017 15C21.0017 15.1233 20.979 15.2454 20.9348 15.3593C20.8907 15.4732 20.8261 15.5767 20.7446 15.6637L15.4946 21.2887C15.4133 21.376 15.3168 21.4453 15.2105 21.4926C15.1042 21.5398 14.9902 21.5642 14.8751 21.5642C14.76 21.5642 14.646 21.5398 14.5397 21.4926C14.4334 21.4453 14.3369 21.376 14.2556 21.2887Z" fill="black"/>
<path fill-rule="evenodd" clip-rule="evenodd" d="M1.75 15C1.75 14.7514 1.84219 14.5129 2.00628 14.3371C2.17038 14.1613 2.39294 14.0625 2.625 14.0625H18.375C18.6071 14.0625 18.8296 14.1613 18.9937 14.3371C19.1578 14.5129 19.25 14.7514 19.25 15C19.25 15.2486 19.1578 15.4871 18.9937 15.6629C18.8296 15.8387 18.6071 15.9375 18.375 15.9375H2.625C2.39294 15.9375 2.17038 15.8387 2.00628 15.6629C1.84219 15.4871 1.75 15.2486 1.75 15V15Z" fill="black"/>
<path fill-rule="evenodd" clip-rule="evenodd" d="M23.625 27.1875C24.3212 27.1875 24.9889 26.8912 25.4812 26.3637C25.9734 25.8363 26.25 25.1209 26.25 24.375V5.625C26.25 4.87908 25.9734 4.16371 25.4812 3.63626C24.9889 3.10882 24.3212 2.8125 23.625 2.8125H9.625C8.92881 2.8125 8.26113 3.10882 7.76884 3.63626C7.27656 4.16371 7 4.87908 7 5.625V8.4375C7 8.68614 7.09219 8.9246 7.25628 9.10041C7.42038 9.27623 7.64294 9.375 7.875 9.375C8.10706 9.375 8.32962 9.27623 8.49372 9.10041C8.65781 8.9246 8.75 8.68614 8.75 8.4375V5.625C8.75 5.37636 8.84219 5.1379 9.00628 4.96209C9.17038 4.78627 9.39294 4.6875 9.625 4.6875H23.625C23.8571 4.6875 24.0796 4.78627 24.2437 4.96209C24.4078 5.1379 24.5 5.37636 24.5 5.625V24.375C24.5 24.6236 24.4078 24.8621 24.2437 25.0379C24.0796 25.2137 23.8571 25.3125 23.625 25.3125H9.625C9.39294 25.3125 9.17038 25.2137 9.00628 25.0379C8.84219 24.8621 8.75 24.6236 8.75 24.375V21.5625C8.75 21.3139 8.65781 21.0754 8.49372 20.8996C8.32962 20.7238 8.10706 20.625 7.875 20.625C7.64294 20.625 7.42038 20.7238 7.25628 20.8996C7.09219 21.0754 7 21.3139 7 21.5625V24.375C7 25.1209 7.27656 25.8363 7.76884 26.3637C8.26113 26.8912 8.92881 27.1875 9.625 27.1875H23.625Z" fill="black"/>
</svg>
